# xmcd
#
# Track frame offsets:
#	150
#	19920
#	39937
#	61795
#	79946
#	97607
#	115571
#	133327
#	152899
#	167118
#	181858
#	199917
#
# Disc length: 2873 seconds
#
# Revision: 1
# Processed by: cddbd v1.5.1PL0 Copyright (c) Steve Scherf et al.
# Submitted via: audiograbber 1.81.03
#
DISCID=910b370c
DTITLE=David West - Pickin' On Alan Jackson Vol 2
DYEAR=2004
DGENRE=Bluegrass
TTITLE0=Gone Country
TTITLE1=Little Man
TTITLE2=Where Were You
TTITLE3=Drive
TTITLE4=It's Five O'clock Somewhere
TTITLE5=Midnight In Montgomery
TTITLE6=Gone Crazy
TTITLE7=Who's Cheatin' Who
TTITLE8=I'd Love You All Over Again
TTITLE9=You Can't Have It All
TTITLE10=I'll Go On Loving You
TTITLE11=Gone Bluegrass
EXTD=
EXTT0=
EXTT1=
EXTT2=
EXTT3=
EXTT4=
EXTT5=
EXTT6=
EXTT7=
EXTT8=
EXTT9=
EXTT10=
EXTT11=
PLAYORDER=
